# xmcd
#
# Track frame offsets:
#	150
#	7735
#	22924
#	37531
#	52168
#	67081
#	82656
#	95733
#	113218
#	127324
#	146433
#	162627
#	183388
#	201224
#	216356
#
# Disc length: 3129 seconds
#
# Revision: 0
# Processed by: cddbd v1.5.2PL0 Copyright (c) Steve Scherf et al.
# Submitted via: audiograbber 1.83.01
#
DISCID=cf0c370f
DTITLE=Bombay Rockers - Crush and Burn
DYEAR=2008
DGENRE=Ethnic
TTITLE0=Intro
TTITLE1=Out of control
TTITLE2=Sajna Ve
TTITLE3=Ladies 2 tha floor
TTITLE4=Beautiful
TTITLE5=Lights, camera, action (feat. BBG)
TTITLE6=Crash and burn
TTITLE7=Play me like dat (feat. L.D.M.)
TTITLE8=Kushi
TTITLE9=Lullaby
TTITLE10=Amazin girl
TTITLE11=Supernatural (Feat. Overseas)
TTITLE12=Lovesick part 2
TTITLE13=Dhola
TTITLE14=Ari Ari (Rock) (Feat. Overseas)
EXTD=
EXTT0=
EXTT1=
EXTT2=
EXTT3=
EXTT4=
EXTT5=
EXTT6=
EXTT7=
EXTT8=
EXTT9=
EXTT10=
EXTT11=
EXTT12=
EXTT13=
EXTT14=
PLAYORDER=
